<svg width="18" height="18" fill="none" xmlns="http://www.w3.org/2000/svg"><path fill-rule="evenodd" clip-rule="evenodd" d="M9 .467c-2.317 0-2.608.01-3.518.051-.908.042-1.528.186-2.071.397a4.178 4.178 0 00-1.512.984A4.19 4.19 0 00.914 3.41C.703 3.953.56 4.573.518 5.481.478 6.391.467 6.682.467 9s.01 2.607.051 3.518c.042.908.186 1.528.397 2.07a4.18 4.18 0 00.984 1.513c.474.474.95.766 1.51.984.544.211 1.164.355 2.072.397.91.041 1.201.051 3.519.051 2.317 0 2.607-.01 3.518-.051.908-.042 1.529-.186 2.072-.397a4.175 4.175 0 001.51-.985c.475-.474.766-.95.985-1.511.21-.543.354-1.163.397-2.071.04-.91.051-1.2.051-3.518 0-2.318-.01-2.608-.051-3.519-.043-.908-.187-1.528-.397-2.07a4.188 4.188 0 00-.985-1.512 4.17 4.17 0 00-1.51-.984C14.044.704 13.424.56 12.515.518c-.91-.041-1.2-.051-3.518-.051H9zm-.765 1.537h.766c2.278 0 2.548.009 3.448.05.832.037 1.283.176 1.584.293.399.155.682.34.98.638.3.3.484.584.64.982.116.3.255.752.293 1.584.041.9.05 1.17.05 3.447s-.009 2.548-.05 3.447c-.038.832-.177 1.284-.293 1.584a2.64 2.64 0 01-.64.98 2.64 2.64 0 01-.98.639c-.3.117-.752.256-1.584.294-.9.04-1.17.05-3.448.05-2.279 0-2.549-.01-3.449-.05-.832-.039-1.283-.178-1.584-.294a2.644 2.644 0 01-.981-.639 2.645 2.645 0 01-.639-.98c-.117-.301-.256-.753-.294-1.585-.04-.9-.049-1.17-.049-3.448 0-2.279.008-2.548.05-3.447.037-.832.176-1.284.293-1.585.155-.398.34-.682.639-.981.298-.299.583-.484.98-.639.302-.117.753-.256 1.585-.294.788-.035 1.093-.046 2.683-.048v.002zm5.32 1.417a1.024 1.024 0 100 2.048 1.024 1.024 0 000-2.048zM9.002 4.618a4.382 4.382 0 100 8.765 4.382 4.382 0 000-8.765zm0 1.537a2.844 2.844 0 110 5.69 2.844 2.844 0 010-5.69z" fill="#0096FF"/></svg>